<?xml version="1.0" standalone="no"?>
<!DOCTYPE svg PUBLIC "-//W3C//DTD SVG 20010904//EN"
 "http://www.w3.org/TR/2001/REC-SVG-20010904/DTD/svg10.dtd">
<svg version="1.0" xmlns="http://www.w3.org/2000/svg"
 width="988.000000pt" height="988.000000pt" viewBox="0 0 988.000000 988.000000"
 preserveAspectRatio="xMidYMid meet">
<metadata>
Created by potrace 1.14, written by Peter Selinger 2001-2017
</metadata>
<g transform="translate(0.000000,988.000000) scale(0.100000,-0.100000)"
fill="#000000" stroke="none">
<path d="M4649 9876 c-2 -2 -51 -6 -109 -10 -58 -4 -121 -9 -140 -11 -19 -3
-55 -7 -80 -10 -25 -4 -61 -8 -80 -10 -19 -2 -57 -8 -85 -14 -27 -5 -53 -7
-57 -5 -5 3 -8 1 -8 -5 0 -5 -8 -8 -17 -6 -10 1 -25 -1 -33 -5 -8 -4 -35 -11
-60 -14 -25 -3 -115 -22 -200 -42 -85 -19 -164 -37 -174 -39 -11 -3 -22 -8
-25 -12 -3 -5 -13 -9 -21 -9 -30 -3 -325 -98 -328 -106 -2 -4 -12 -8 -21 -8
-10 0 -21 -3 -25 -7 -4 -5 -11 -8 -14 -9 -4 0 -20 -6 -37 -13 -16 -6 -43 -17
-60 -23 -16 -6 -58 -24 -93 -40 -35 -15 -65 -28 -67 -28 -7 0 -240 -113 -245
-119 -3 -3 -52 -30 -110 -60 -58 -30 -107 -57 -110 -61 -3 -4 -15 -10 -27 -14
-13 -4 -23 -12 -23 -17 0 -5 -4 -9 -9 -9 -10 0 -148 -82 -170 -101 -8 -7 -46
-34 -85 -60 -112 -74 -350 -257 -419 -322 -13 -12 -55 -49 -92 -82 -152 -134
-412 -406 -513 -538 -57 -75 -157 -202 -165 -212 -22 -25 -152 -219 -204 -305
-32 -52 -62 -102 -68 -111 -5 -9 -27 -49 -49 -90 -21 -41 -42 -76 -46 -79 -4
-3 -35 -63 -69 -135 -34 -71 -69 -142 -77 -157 -8 -16 -12 -28 -7 -28 4 0 3
-4 -3 -8 -6 -4 -25 -43 -42 -87 -17 -44 -37 -93 -43 -110 -7 -16 -13 -32 -14
-35 0 -3 -6 -14 -12 -25 -11 -20 -82 -236 -88 -267 -2 -9 -9 -26 -15 -38 -6
-11 -8 -24 -5 -29 3 -5 0 -15 -7 -23 -7 -7 -14 -20 -15 -28 -1 -8 -9 -42 -18
-75 -18 -67 -62 -266 -71 -323 -3 -20 -8 -41 -11 -45 -2 -4 -7 -24 -10 -45
-10 -78 -11 -87 -13 -87 -1 0 -3 -11 -5 -25 -1 -14 -5 -38 -9 -55 -3 -16 -8
-57 -12 -90 -3 -33 -7 -71 -10 -85 -25 -162 -25 -981 1 -1063 2 -7 6 -41 9
-77 3 -36 8 -75 10 -86 5 -27 17 -93 20 -119 2 -11 8 -45 15 -75 17 -82 21
-102 27 -140 8 -48 63 -282 71 -300 3 -8 5 -19 4 -24 -1 -5 3 -12 8 -16 6 -3
13 -19 15 -36 6 -44 108 -348 119 -355 5 -4 6 -12 3 -18 -4 -6 -2 -11 3 -11 6
0 11 -8 11 -18 0 -10 4 -22 8 -28 5 -5 17 -31 27 -59 10 -27 38 -93 63 -145
24 -52 60 -128 79 -169 19 -40 41 -80 49 -88 8 -8 12 -18 9 -23 -3 -5 -1 -11
5 -15 6 -4 22 -30 36 -58 44 -86 186 -317 195 -317 5 0 9 -5 9 -10 0 -22 200
-299 284 -395 20 -22 36 -43 36 -47 0 -4 17 -25 38 -46 20 -22 66 -72 102
-112 81 -91 246 -256 335 -335 37 -33 85 -77 107 -98 23 -21 56 -48 74 -61 19
-13 52 -39 74 -60 21 -20 43 -36 47 -36 4 0 26 -17 49 -38 23 -20 45 -38 50
-39 5 -2 29 -18 54 -36 114 -85 334 -224 455 -288 44 -23 82 -45 83 -50 2 -5
12 -9 22 -9 10 0 20 -4 22 -9 3 -9 171 -91 187 -91 6 0 11 -4 11 -8 0 -5 19
-15 43 -22 23 -8 44 -17 47 -20 5 -6 46 -23 145 -62 33 -13 61 -26 63 -30 2
-4 10 -4 18 -1 8 3 14 -1 14 -8 0 -7 3 -9 7 -6 3 4 11 3 17 -2 6 -4 63 -25
126 -45 63 -21 122 -40 130 -43 8 -3 24 -7 35 -8 11 -1 30 -7 43 -14 12 -6 22
-9 22 -5 0 3 6 2 13 -4 14 -12 218 -63 352 -87 50 -9 97 -19 105 -22 16 -6 22
-7 85 -17 22 -3 51 -8 65 -11 14 -3 39 -7 55 -9 17 -2 50 -7 75 -10 275 -37
958 -44 1160 -12 14 3 52 7 85 10 33 4 69 8 80 10 11 2 45 8 75 12 61 9 69 10
73 14 1 1 13 4 27 5 14 1 32 5 40 8 8 3 31 8 50 10 37 5 233 48 310 67 25 7
54 13 64 16 11 2 22 7 25 12 3 4 13 8 21 8 26 0 345 106 351 116 3 5 9 9 13 8
28 -7 399 161 636 287 123 66 490 298 510 322 3 4 34 28 70 53 81 59 77 56
126 98 23 19 56 46 74 59 17 14 46 38 63 53 128 115 170 154 255 239 167 165
270 281 424 474 37 46 148 199 183 253 24 37 53 78 64 92 11 14 21 29 21 33 0
4 18 34 40 66 21 32 36 61 33 65 -4 3 -1 6 5 6 7 0 12 6 12 14 0 8 4 16 8 18
10 4 97 163 180 333 54 109 90 191 157 360 5 11 7 23 7 28 -1 4 2 7 8 7 5 0
10 7 10 16 0 9 6 30 14 47 8 18 29 79 47 137 17 58 42 137 55 175 25 75 59
216 93 385 12 58 24 116 27 130 10 48 36 223 49 330 26 230 27 989 0 1073 -2
6 -6 43 -9 81 -4 38 -8 71 -10 75 -2 3 -7 29 -10 56 -6 49 -10 74 -21 125 -4
14 -8 36 -11 50 -27 143 -48 241 -70 325 -14 55 -26 106 -26 113 -1 6 -6 12
-11 12 -6 0 -7 3 -4 6 3 4 2 14 -3 24 -5 9 -11 28 -14 41 -2 13 -20 74 -40
134 -20 61 -36 116 -36 123 0 6 -4 12 -10 12 -5 0 -10 8 -10 18 0 10 -3 22 -7
26 -5 4 -8 11 -9 14 0 4 -4 16 -9 27 -75 186 -98 242 -106 251 -5 6 -6 14 -2
17 3 4 1 7 -6 7 -7 0 -9 5 -6 10 3 6 1 10 -4 10 -6 0 -11 5 -11 11 0 25 -174
354 -254 479 -22 36 -47 77 -55 92 -8 15 -22 36 -31 45 -9 10 -32 43 -52 74
-30 47 -82 121 -116 164 -4 6 -19 26 -32 45 -14 19 -33 43 -44 55 -10 11 -30
36 -45 55 -14 19 -30 40 -36 46 -5 6 -32 37 -60 70 -173 202 -434 455 -640
620 -33 26 -64 52 -70 56 -5 5 -41 31 -80 59 -38 29 -71 56 -73 60 -2 5 -8 9
-14 9 -6 0 -27 14 -48 30 -21 17 -41 30 -44 30 -4 0 -31 18 -60 40 -29 22 -58
40 -64 40 -7 0 -12 5 -12 10 0 6 -5 10 -10 10 -6 0 -36 16 -66 35 -164 105
-493 272 -669 340 -38 15 -90 36 -115 47 -43 20 -356 123 -380 126 -3 0 -18 6
-35 12 -63 25 -386 100 -445 104 -14 1 -31 5 -37 9 -7 5 -17 6 -22 2 -5 -3
-12 -1 -16 4 -3 5 -13 9 -23 9 -9 0 -37 3 -62 7 -77 12 -92 15 -190 25 -52 6
-115 13 -140 16 -50 6 -715 16 -721 10z"/>
</g>
</svg>
