<svg xmlns="http://www.w3.org/2000/svg" xmlns:xlink="http://www.w3.org/1999/xlink" viewBox="0 0 64 64"><defs><style>.cls-1{fill:none;}.cls-2{clip-path:url(#clip-path);}.cls-3{fill:#34a853;}.cls-4{fill:#1a73e8;}.cls-5{fill:#ea4335;}.cls-6{fill:#4285f4;}.cls-7{fill:#fbbc04;}</style><clipPath id="clip-path"><path class="cls-1" d="M53.17,23.35a24.32,24.32,0,0,1-4.88,14.41c-1.75,2.44-3.66,4.77-5.48,7.17-1.39,1.84-2.77,3.69-4.12,5.57a30.34,30.34,0,0,0-4.42,9.27,11.7,11.7,0,0,1-.68,1.69,1.86,1.86,0,0,1-3.26,0,22.1,22.1,0,0,1-1-2.61A29.3,29.3,0,0,0,24.86,50c-2.06-2.79-4.19-5.53-6.31-8.27a54.63,54.63,0,0,1-4.81-7,23.88,23.88,0,0,1-3-12.54A20.71,20.71,0,0,1,17,7.78,20.37,20.37,0,0,1,29.64,1.71,20.67,20.67,0,0,1,46.57,7.42a20.62,20.62,0,0,1,6.37,12.15c.19,1.25.22,2.52.32,3.77ZM32,30.9a8.11,8.11,0,1,0-8.12-8A8.12,8.12,0,0,0,32,30.9Z"/></clipPath></defs><title>Google_Maps_Integration_Icon_Bit</title><g id="Google_Maps" data-name="Google Maps"><g class="cls-2"><polygon class="cls-3" points="72.53 15.86 52.35 39.87 32.17 63.89 18.01 51.99 38.19 27.98 58.37 3.96 72.53 15.86"/><rect class="cls-4" x="14.24" y="-7.21" width="31.37" height="15.53" transform="translate(10.25 23.11) rotate(-49.96)"/><rect class="cls-5" x="-5.94" y="16.81" width="31.37" height="15.53" transform="translate(-15.33 16.23) rotate(-49.96)"/><rect class="cls-6" x="26.39" y="2.66" width="31.37" height="16.2" transform="translate(6.77 36.05) rotate(-49.96)"/><rect class="cls-7" x="6.21" y="26.68" width="31.37" height="16.2" transform="translate(-18.82 29.17) rotate(-49.96)"/></g></g></svg>